<svg xmlns="http://www.w3.org/2000/svg" viewBox="43 205 419 87" width="1676" height="348" fill="none">
  <title>VANTAGE</title>
  <g fill="#3391C5">
    <path d="M53,215 L81,215 L107,260 L92.5,283 Z"/>
    <path d="M125,215 L144,215 L127,245 L107,244 Z"/>
  </g>
  <g fill="#FFFFFF" transform="translate(152.000,263.000) scale(0.045714,-0.045714)"><path transform="translate(0.0,0)" d="M293.2918924777802 0 -9.345545198352482 700H166.21200953826144L429.53793626707136 80.03663559505745H326.8102102753089L594.7225233037069 700H755.5209191415565L453.48688489052677 0Z"/><path transform="translate(961.0,0)" d="M-9.345545198352482 0 302.6884890526772 700H462.8834814654238L775.5209191415565 0H606.3429438543247L349.56936917407324 617.5667678300455H413.8128116193367L157.03923693908519 0ZM147.31151094732277 149.75655755473662 189.81281161933666 272.69109039670496H550.4306308259268L593.5353349230436 149.75655755473662Z"/><path transform="translate(1942.0,0)" d="M82.9463472794277 0V700H216.60600476913072L629.9293301539128 195.55755473661392H565.2722740082376V700H725.2774766962931V0H591.6178192065901L178.29449382180792 504.44244526338605H242.9515499674832V0Z"/><path transform="translate(2965.0,0)" d="M227.70550617819208 0V567.6858877086495H4V700H613.7957944938219V567.6858877086495H390.0902883156298V0Z"/><path transform="translate(3798.0,0)" d="M-9.345545198352482 0 302.6884890526772 700H462.8834814654238L775.5209191415565 0H606.3429438543247L349.56936917407324 617.5667678300455H413.8128116193367L157.03923693908519 0ZM147.31151094732277 149.75655755473662 189.81281161933666 272.69109039670496H550.4306308259268L593.5353349230436 149.75655755473662Z"/><path transform="translate(4779.0,0)" d="M420.60340342510295 -11.776176024279211Q338.0170171255148 -11.776176024279211 268.32722740082374 14.72382397572079Q198.63743767613266 41.22382397572079 147.3442445263386 89.9221222631693Q96.05105137654455 138.6204205506178 67.65445480164752 204.71531541296338Q39.257858226750486 270.8102102753089 39.257858226750486 350Q39.257858226750486 429.1897897246911 67.65445480164752 495.2846845870366Q96.05105137654455 561.3795794493822 147.8442445263386 610.0778777368307Q199.63743767613266 658.7761760242793 269.7238239757208 685.2761760242793Q339.8102102753089 711.7761760242793 423.79319314979404 711.7761760242793Q516.9319314979406 711.7761760242793 591.4927921092565 681.0Q666.0536527205722 650.2238239757207 716.6400390201604 591.2578582267505L613.308909603295 495.06546715803165Q574.8782787773683 535.4790808584435 530.0425428137871 554.9790808584435Q485.20680685020596 574.4790808584435 431.56936917407324 574.4790808584435Q381.10470409711684 574.4790808584435 339.0451441578149 558.2552568827227Q296.9855842185129 542.031432907002 266.5379362670713 512.0922935183178Q236.09028831562975 482.15315412963366 219.56476262735748 441.10210275308907Q203.03923693908519 400.05105137654454 203.03923693908519 350Q203.03923693908519 301.3455451983525 219.56476262735748 260.0961955343594Q236.09028831562975 218.84684587036637 266.5379362670713 188.60600476913072Q296.9855842185129 158.36516366789508 338.34684587036634 141.94304140472576Q379.7081075222198 125.52091914155648 429.7761760242792 125.52091914155648Q478.2238239757208 125.52091914155648 523.4646650769564 141.13283112941687Q568.7055061781921 156.74474311727727 612.308909603295 193.96856709299806L703.8808801213961 77.22382397572079Q646.5183177975288 33.62042055061782 571.1557554736614 10.922122263169307Q495.79319314979404 -11.776176024279211 420.60340342510295 -11.776176024279211ZM703.8808801213961 77.22382397572079 556.2042055061781 98.17277259917624V361.1557554736614H703.8808801213961Z"/><path transform="translate(5765.0,0)" d="M82.9463472794277 0V700H611.5183177975288V569.6688705831347H243.74474311727727V130.3311294168654H625.1217212226317V0ZM231.96856709299806 292.32592672880986V418.2774766962931H569.3115109473227V292.32592672880986Z"/></g>
</svg>
